# xmcd
#
# Track frame offsets:
#	150
#	13343
#	24324
#	34803
#	50082
#	62418
#	75846
#	89903
#	106506
#	121031
#	130330
#	148198
#
# Disc length: 2118 seconds
#
# Revision: 0
# Processed by: cddbd v1.5.2PL0 Copyright (c) Steve Scherf et al.
# Submitted via: EasyCDDAExtractor 5.0.5.1
#
DISCID=9808440c
DTITLE=Various Artist - Las mejores baladas soul
DYEAR=1900
DGENRE=soul
TTITLE0=Ray Charles - Take these chains from my heart
TTITLE1=The Drifters - Spanish harlem
TTITLE2=Little Richard - Send me some lovin'
TTITLE3=Louis Armstrong - Blueberry hill
TTITLE4=Dionne Warwick - Alfie
TTITLE5=Percy Sledge - Warm and tender love
TTITLE6=Wilson Pickett - It's too late
TTITLE7=G.C. Cameron - Just my imagination
TTITLE8=Otis Redding - You send me
TTITLE9=Gladys Night - Every beat of my heart
TTITLE10=Ben E. King - She does it right
TTITLE11=Sarah Vaughan - Separate ways
EXTD=
EXTT0=
EXTT1=
EXTT2=
EXTT3=
EXTT4=
EXTT5=
EXTT6=
EXTT7=
EXTT8=
EXTT9=
EXTT10=
EXTT11=
PLAYORDER=
